<svg width="70" height="70" viewBox="0 0 70 70" fill="none" xmlns="http://www.w3.org/2000/svg">
<g clip-path="url(#clip0_1526_1347)">
<path d="M49.6777 19.1934H51.9358V21.4514H49.6777V19.1934Z" fill="white"/>
<path d="M4.51758 46.2891H6.77564V48.5471H4.51758V46.2891Z" fill="white"/>
<path d="M64.3548 19.1932H56.3375C55.8127 16.6203 53.5331 14.677 50.8064 14.677C48.0798 14.677 45.8002 16.6203 45.2754 19.1932H41.3872C39.8794 19.1932 38.4615 19.7814 37.3959 20.847L34.3958 23.846C33.7646 24.4772 32.8919 24.8383 31.9999 24.8383H30.4839V19.1932H31.6129C32.8583 19.1932 33.871 18.1805 33.871 16.9351V5.64478C33.871 4.39943 32.8583 3.38672 31.6129 3.38672H6.77419C5.52884 3.38672 4.51613 4.39943 4.51613 5.64478V16.9351C4.51613 18.1805 5.52884 19.1932 6.77419 19.1932H7.90323V25.3168C5.91253 26.1912 4.51613 28.1747 4.51613 30.4835V41.8879C1.94328 42.4128 0 44.6934 0 47.419C0 50.1445 1.94328 52.4252 4.51613 52.95V58.7093C4.51613 61.8219 7.04873 64.3545 10.1613 64.3545H20.3226C20.3226 65.5998 21.3353 66.6125 22.5806 66.6125H36.129C37.3744 66.6125 38.3871 65.5998 38.3871 64.3545H44.0323C47.1448 64.3545 49.6774 61.8219 49.6774 58.7093V54.1932C49.6774 52.326 51.1973 50.8061 53.0645 50.8061H58.7097V48.548H53.0645C49.952 48.548 47.4194 51.0806 47.4194 54.1932V58.7093C47.4194 60.5765 45.8995 62.0964 44.0323 62.0964H38.3871C38.3871 60.851 37.3744 59.8383 36.129 59.8383H35.8512L31.8792 45.9377C31.56 44.8142 30.5214 44.0319 29.3548 44.0319C28.1883 44.0319 27.1497 44.8142 26.8305 45.9377L22.8585 59.8383H22.5806C21.3353 59.8383 20.3226 60.851 20.3226 62.0964H10.1613C8.29409 62.0964 6.77419 60.5765 6.77419 58.7093V52.95C9.34704 52.4252 11.2903 50.1456 11.2903 47.419C11.2903 44.6923 9.34704 42.4128 6.77419 41.8879V30.4835C6.77419 28.6163 8.29409 27.0964 10.1613 27.0964H14.6774V24.8383H10.1613V19.1932H28.2258V24.8383H16.9355V27.0964H31.9999C33.5077 27.0964 34.9256 26.5082 35.9912 25.4425L38.9913 22.4435C39.6225 21.8123 40.4952 21.4512 41.3872 21.4512H45.2754C45.8002 24.0241 48.0798 25.9674 50.8064 25.9674C53.5331 25.9674 55.8127 24.0241 56.3375 21.4512H64.3548C66.222 21.4512 67.7419 22.9711 67.7419 24.8383V45.1609C67.7419 47.0281 66.222 48.548 64.3548 48.548H60.9677V50.8061H64.3548C67.4674 50.8061 70 48.2735 70 45.1609V24.8383C70 21.7258 67.4674 19.1932 64.3548 19.1932ZM29.0015 46.5562C29.0919 46.2436 29.6189 46.2436 29.7093 46.5562L33.5027 59.8383H25.2059L29.0015 46.5562ZM22.5806 62.0964H36.129L36.1301 64.3545H22.5806V62.0964ZM9.03226 47.419C9.03226 49.2862 7.51236 50.8061 5.64516 50.8061C3.77796 50.8061 2.25806 49.2862 2.25806 47.419C2.25806 45.5518 3.77796 44.0319 5.64516 44.0319C7.51236 44.0319 9.03226 45.5518 9.03226 47.419ZM27.0968 16.9351V12.419H31.614L31.6151 16.9351H27.0968ZM18.0645 10.1609H13.5484V5.64478H18.0645V10.1609ZM20.3226 5.64478H24.8387V10.1609H20.3226V5.64478ZM18.0645 12.419V16.9351H13.5484V12.419H18.0645ZM20.3226 12.419H24.8387V16.9351H20.3226V12.419ZM31.614 10.1609H27.0968V5.64478H31.6129L31.614 10.1609ZM11.2903 5.64478V10.1609H6.77419V5.64478H11.2903ZM6.77419 12.419H11.2903V16.9351H6.77419V12.419ZM50.8064 23.7093C48.9392 23.7093 47.4194 22.1894 47.4194 20.3222C47.4194 18.455 48.9392 16.9351 50.8064 16.9351C52.6737 16.9351 54.1936 18.455 54.1936 20.3222C54.1936 22.1894 52.6737 23.7093 50.8064 23.7093Z" fill="blue"/>
</g>
<defs>
<clipPath id="clip0_1526_1347">
<rect width="70" height="70" fill="white"/>
</clipPath>
</defs>
</svg>
