<svg width="70" height="71" viewBox="0 0 70 71" fill="none" xmlns="http://www.w3.org/2000/svg">
<path d="M2.25801 9.03204H38.3862V11.2901H40.6442V5.64503C40.6442 2.53236 38.1118 0 34.9992 0H5.64503C2.53236 0 0 2.53236 0 5.64503V56.4503H2.25801V9.03204ZM2.25801 5.64503C2.25801 3.77765 3.77765 2.25801 5.64503 2.25801H34.9992C36.8665 2.25801 38.3862 3.77765 38.3862 5.64503V6.77403H2.25801V5.64503Z" fill="#381DDB"/>
<path d="M0 64.356C0 67.4686 2.53236 70.001 5.64503 70.001H34.9992C38.1118 70.001 40.6442 67.4686 40.6442 64.356V58.7109H0V64.356ZM2.25801 60.969H38.3862V64.356C38.3862 66.2234 36.8665 67.743 34.9992 67.743H5.64503C3.77765 67.743 2.25801 66.2234 2.25801 64.356V60.969Z" fill="#381DDB"/>
<path d="M25.9697 63.2246H14.6797V65.4826H25.9697V63.2246Z" fill="#381DDB"/>
<path d="M50.8033 35C47.0674 35 44.0293 38.0382 44.0293 41.774C44.0293 45.5099 47.0674 48.5481 50.8033 48.5481C54.5392 48.5481 57.5774 45.5099 57.5774 41.774C57.5774 38.0382 54.5392 35 50.8033 35ZM50.8033 46.2901C48.3127 46.2901 46.2873 44.2646 46.2873 41.774C46.2873 39.2834 48.3127 37.258 50.8033 37.258C53.2939 37.258 55.3193 39.2834 55.3193 41.774C55.3193 44.2646 53.2939 46.2901 50.8033 46.2901Z" fill="#381DDB"/>
<path d="M19.1958 20.3203C16.0831 20.3203 13.5508 22.8527 13.5508 25.9653C13.5508 29.078 16.0831 31.6104 19.1958 31.6104C22.3085 31.6104 24.8408 29.078 24.8408 25.9653C24.8408 22.8527 22.3085 20.3203 19.1958 20.3203ZM19.1958 29.3524C17.3284 29.3524 15.8088 27.8327 15.8088 25.9653C15.8088 24.098 17.3284 22.5783 19.1958 22.5783C21.0632 22.5783 22.5828 24.098 22.5828 25.9653C22.5828 27.8327 21.0632 29.3524 19.1958 29.3524Z" fill="#381DDB"/>
<path d="M23.1998 36.5264C23.4076 36.4474 23.6142 36.3605 23.8196 36.2668L27.3196 38.6004L31.822 34.0979L29.4884 30.598C29.5821 30.3914 29.669 30.1848 29.7481 29.9782L33.8689 29.154V22.7864L29.7481 21.9622C29.5889 21.5501 29.4014 21.138 29.1881 20.7305L27.1897 21.7816C27.4505 22.2795 27.6628 22.7841 27.8163 23.2786L28.0162 23.9188L31.6109 24.638V27.3024L28.015 28.0216L27.8152 28.6618C27.6616 29.1563 27.4505 29.6598 27.1886 30.1588L26.877 30.7527L28.9148 33.81L27.0317 35.6944L23.9743 33.6554L23.3816 33.967C22.886 34.2278 22.3813 34.4389 21.8834 34.5947L21.2444 34.7945L20.5252 38.3893H17.8596L17.1404 34.7945L16.5014 34.5947C16.0035 34.4389 15.4989 34.2278 15.0032 33.967L14.4105 33.6554L11.3532 35.6944L8.81516 33.1552L7.21875 34.7516L11.0664 38.5993L14.5663 36.2656C14.7718 36.3593 14.9784 36.4463 15.1861 36.5253L16.0103 40.6462H22.3768L23.1998 36.5264Z" fill="#381DDB"/>
<path d="M4.51953 22.7823V29.1499L8.6404 29.9741C8.79959 30.3862 8.987 30.7983 9.20039 31.2059L11.1987 30.1547C10.9379 29.6569 10.7257 29.1522 10.5721 28.6577L10.3723 28.0175L6.77754 27.2984V24.6339L10.3734 23.9147L10.5733 23.2746C10.7268 22.7801 10.9379 22.2765 11.1999 21.7775L11.5115 21.1837L9.47361 18.1263L11.3579 16.242L14.4164 18.281L15.0091 17.9683C15.5036 17.7086 16.0072 17.4975 16.5051 17.3417L17.1441 17.1418L17.8632 13.5471H20.5288L21.248 17.1418L21.887 17.3417C22.3849 17.4975 22.8896 17.7086 23.3829 17.9683L23.9757 18.281L27.0342 16.242L29.5733 18.7811L31.1697 17.1847L27.3232 13.3371L23.8221 15.6696C23.6155 15.5759 23.41 15.4901 23.2023 15.4099L22.3793 11.2891H16.0128L15.1886 15.4099C14.9809 15.4901 14.7754 15.5759 14.5688 15.6696L11.0678 13.3371L6.56642 17.8384L8.90007 21.3383C8.80636 21.5449 8.71943 21.7516 8.6404 21.9582L4.51953 22.7823Z" fill="#381DDB"/>
<path d="M20.3205 42.9023H18.0625V45.1604H20.3205V42.9023Z" fill="#381DDB"/>
<path d="M20.3205 47.416H18.0625V49.674H20.3205V47.416Z" fill="#381DDB"/>
<path d="M20.3205 51.9355H18.0625V54.1936H20.3205V51.9355Z" fill="#381DDB"/>
<path d="M51.9357 18.0625H49.6777V20.3205H51.9357V18.0625Z" fill="#381DDB"/>
<path d="M51.9357 13.5508H49.6777V15.8088H51.9357V13.5508Z" fill="#381DDB"/>
<path d="M51.9357 9.03125H49.6777V11.2893H51.9357V9.03125Z" fill="#381DDB"/>
<path d="M69.9997 46.0899V37.4644L64.4314 36.3523C64.3016 36.026 64.1582 35.7031 64.0035 35.3848L61.9725 36.3726C62.1847 36.8107 62.3721 37.2578 62.5257 37.7049L62.7379 38.3156L67.7417 39.3159V44.2373L62.7379 45.2387L62.5257 45.8495C62.371 46.2965 62.1847 46.7448 61.9725 47.1817L61.6891 47.7631L64.5217 52.0115L61.041 55.4923L56.7914 52.6607L56.21 52.9441C55.7731 53.1563 55.3249 53.3438 54.8778 53.4973L54.267 53.7096L53.2678 58.7122H48.3453L47.3439 53.7084L46.7331 53.4962C46.286 53.3415 45.8378 53.1552 45.4009 52.943L44.8194 52.6596L40.5699 55.4911L36.4343 51.3567L34.8379 52.9531L40.2831 58.3972L45.008 55.2473C45.131 55.3003 45.2552 55.3523 45.3794 55.4019L46.4938 60.9702H55.1205L56.2326 55.4019C56.3568 55.3523 56.481 55.3003 56.604 55.2473L61.3289 58.3972L67.4289 52.2994L64.2779 47.5734C64.3309 47.4504 64.3829 47.3262 64.4326 47.202L69.9997 46.0899Z" fill="#381DDB"/>
<path d="M34.186 31.2528L37.337 35.9777C37.284 36.1007 37.232 36.2249 37.1824 36.3491L31.6152 37.4623V46.0891L37.1835 47.2011C37.3133 47.5274 37.4567 47.8503 37.6114 48.1675L39.6425 47.1797C39.4302 46.7427 39.2428 46.2945 39.0893 45.8474L38.877 45.2367L33.8732 44.2364V39.3139L38.877 38.3125L39.0893 37.7017C39.2439 37.2546 39.4302 36.8075 39.6425 36.3694L39.9258 35.7869L37.0932 31.5396L40.5739 28.0588L44.8223 30.8904L45.4049 30.6081C45.8407 30.3959 46.2901 30.2085 46.7394 30.0527L47.3479 29.8404L48.346 24.84H53.2696L54.2699 29.8415L54.8784 30.0538C55.3266 30.2096 55.7771 30.397 56.2129 30.6093L56.7955 30.8915L61.0439 28.06L65.1794 32.1955L66.7759 30.5991L61.3307 25.155L56.6046 28.305C56.4827 28.2519 56.3585 28.2011 56.2343 28.1514L55.12 22.582H46.4955L45.3823 28.1503C45.2581 28.2 45.134 28.2508 45.012 28.3038L40.286 25.1539L34.186 31.2528Z" fill="#381DDB"/>
</svg>
