<svg width="70" height="70" viewBox="0 0 70 70" fill="none" xmlns="http://www.w3.org/2000/svg">
<path d="M57.9208 21.798L69.5994 10.1194C70.1298 9.59408 70.134 8.73829 69.6087 8.20775C69.3659 7.96258 69.0386 7.81947 68.6938 7.80798L68.7343 7.88909L62.3814 7.67281L62.1651 1.31985C62.1399 0.573719 61.5148 -0.0107197 60.7686 0.0144556C60.4238 0.026114 60.0963 0.169056 59.8537 0.414219L48.1886 12.0253C47.9253 12.2902 47.7834 12.6523 47.7966 13.0255V14.3772C33.9274 4.82294 14.9391 8.32095 5.38482 22.19C-4.16945 36.0591 -0.671608 55.0475 13.1976 64.6018C27.0667 74.156 46.0551 70.658 55.6094 56.789C62.7853 46.3723 62.7853 32.6068 55.6094 22.19H56.9611C57.3203 22.192 57.6656 22.0509 57.9208 21.798ZM58.3263 39.5052C58.3466 54.8686 45.9084 67.3394 30.5451 67.3597C15.1817 67.38 2.71084 54.9419 2.69056 39.5785C2.67029 24.2152 15.1084 11.7443 30.4718 11.724C36.833 11.7156 43.0048 13.8877 47.9588 17.8781L48.0264 20.1354L42.6196 25.5422C34.9283 18.8011 23.2285 19.5716 16.4875 27.2629C9.7464 34.9542 10.5169 46.654 18.2082 53.395C25.8995 60.1361 37.5992 59.3656 44.3403 51.6743C50.3969 44.7638 50.4701 34.4573 44.512 27.4616L49.9187 22.0548L52.149 22.1359C56.1244 27.0542 58.3033 33.1813 58.3263 39.5052ZM29.6433 40.4108C30.1705 40.935 31.0221 40.935 31.5492 40.4108L34.2526 37.7075C34.516 38.2512 34.6546 38.8469 34.6581 39.4511C34.6581 41.6907 32.8426 43.5062 30.603 43.5062C28.3634 43.5062 26.548 41.6907 26.548 39.4511C26.548 37.2115 28.3634 35.3961 30.603 35.3961C31.2072 35.3996 31.803 35.5382 32.3467 35.8016L29.6433 38.5049C29.1192 39.0321 29.1192 39.8837 29.6433 40.4108ZM34.3202 33.8146C31.2076 31.7546 27.0143 32.6078 24.9543 35.7205C22.8943 38.8331 23.7476 43.0264 26.8602 45.0863C29.9728 47.1463 34.1661 46.2931 36.2261 43.1805C37.7227 40.9189 37.7227 37.9818 36.2261 35.7205L42.6331 29.3134C48.2499 35.9827 47.3965 45.9425 40.7272 51.5593C34.058 57.1761 24.0982 56.3226 18.4814 49.6534C12.8646 42.9841 13.718 33.0243 20.3873 27.4075C26.2641 22.4583 34.8504 22.4583 40.7272 27.4075L34.3202 33.8146ZM50.7568 19.2974L50.5676 13.5392L59.6239 4.48282L59.7726 8.98396C59.7726 9.73043 60.3778 10.3357 61.1243 10.3357L65.6254 10.4843L56.515 19.4866L50.7568 19.2974Z" fill="#381DDB"/>
</svg>
